<?xml version="1.0" encoding="UTF-8"?>
<!DOCTYPE svg PUBLIC "-//W3C//DTD SVG 1.1//EN" "http://www.w3.org/Graphics/SVG/1.1/DTD/svg11.dtd">
<svg version="1.1" id="Layer_1" xmlns="http://www.w3.org/2000/svg" xmlns:xlink="http://www.w3.org/1999/xlink" x="0px" y="0px" width="21px" height="21px" viewBox="0 0 21 21" enable-background="new 0 0 21 21" xml:space="preserve">
  <g id="icon">
    <circle cx="10.5" cy="10.5" r="10" fill="none" stroke="#4DA07D" stroke-width="1" stroke-linecap="round" stroke-miterlimit="1" stroke-linejoin="round"/>
    <path d="M11.9,16c0.9634,0,1.3386,-0.3227,1.3386,-1.2c0,-1.4424,-0.4078,-1.3589,-0.9698,-1.4237c-0.622,-0.0729,-1.2336,-0.1663,-1.5287,-0.2707c-0.7472,-0.2651,-0.6937,-1.2541,-0.6937,-1.5337c0,-0.0421,-0.3464,-0.0404,-0.3464,0c0,0.3957,0.014,0.9428,-0.1895,1.5592c-0.0634,0.1781,-0.1097,0.2986,-0.1105,0.3001c-0.2343,0.4914,-0.5735,0.323,-1.2,0.2428c-0.6279,-0.08,-1.7762,-0.3593,-2.3626,-0.6104c-0.263,-0.1222,-0.3524,-0.238,-0.4863,-0.515c-0.3455,-0.7126,-0.7092,-3.0555,-0.7542,-3.3908c-0.0539,-0.4335,-0.0562,-0.6574,-0.0562,-0.6574C4.52,6.78,7.46,4.62,8.1586,4.5728c0.3074,-0.0208,1.4537,-0.1559,2.2019,0.1452c0.2811,0.1132,0.5321,0.4403,0.5844,0.7983c0.4355,-0.0133,1.1566,-0.0192,1.77,0.0532c0.7622,0.0897,1.3692,0.2018,1.6683,0.31c0.2774,0.1,0.7189,0.3544,0.8153,0.8703l0,0c0.1647,0.8828,0.3725,4.3811,0.2657,5.5398c-0.1689,1.8332,-0.4486,2.9247,-0.5642,3.2824c-0.5842,1.8122,-1.2171,1.954,-2.6312,1.928C11.18,17.48,10,17.743,10,16.3c0,-1.5898,0.4291,-1.6351,1.7,-1.6M13.4701,10.805c0.0001,0,0.0001,0.0001,0.0001,0.0001c-0.0019,-0.369,-0.0825,-0.914,-0.6592,-0.9339c-0.0326,-0.0011,-0.0637,-0.0005,-0.0935,0.0018c-0.0045,0.0003,-0.0089,0.0008,-0.0134,0.0012c-0.0028,0.0003,-0.0057,0.0005,-0.0086,0.0008c-0.428,0.0457,-0.5561,0.4431,-0.5969,0.7714c0.0001,0,0.0001,0,0.0001,0l0.0001,0c0.0052,-0.0008,0.0105,-0.0016,0.0158,-0.0024c0.0459,-0.007,0.0919,-0.0128,0.1381,-0.0173c0.0045,-0.0004,0.0091,-0.0008,0.0136,-0.0013c0.0049,-0.0005,0.0098,-0.0009,0.0147,-0.0013c0.1016,-0.0087,0.2069,-0.0115,0.3147,-0.0079c0.0008,0,0.0015,0,0.0023,0.0001c0.0082,0.0003,0.0165,0.0006,0.0247,0.001c0.0021,0.0001,0.0041,0.0002,0.0062,0.0003c0.0002,0,0.0004,0,0.0007,0c0.1096,0.0051,0.216,0.0167,0.3181,0.0339C13.1398,10.6839,13.3165,10.7367,13.4701,10.805L13.4701,10.805z" fill="none" stroke="#4DA07D" stroke-width="1" stroke-linecap="round" stroke-miterlimit="1" stroke-linejoin="round"/>
    <path d="M6,8.5h1.55c0.5247,0,0.95,-0.4253,0.95,-0.95V6" fill="none" stroke="#4DA07D" stroke-width="1" stroke-linecap="round" stroke-miterlimit="1" stroke-linejoin="round"/>
  </g>
</svg>
