<?xml version="1.0" encoding="UTF-8"?>
<!DOCTYPE svg PUBLIC "-//W3C//DTD SVG 1.1//EN" "http://www.w3.org/Graphics/SVG/1.1/DTD/svg11.dtd">
<svg version="1.1" id="Layer_1" xmlns="http://www.w3.org/2000/svg" xmlns:xlink="http://www.w3.org/1999/xlink" x="0px" y="0px" width="21px" height="21px" viewBox="0 0 21 21" enable-background="new 0 0 21 21" xml:space="preserve">
  <g id="icon">
    <circle cx="10.5" cy="10.5" r="10" fill="none" stroke="#E51400" stroke-width="1" stroke-linecap="round" stroke-miterlimit="1" stroke-linejoin="round"/>
    <path d="M9.5036,14.4905c-2.2742,-0.0399,-3.051,-0.0757,-3.5284,-0.1694c-0.323,-0.0622,-0.6037,-0.2004,-0.8095,-0.4009c-0.1591,-0.1517,-0.2856,-0.3831,-0.3837,-0.7043c-0.0842,-0.2675,-0.117,-0.4901,-0.1637,-1.0338c-0.0716,-1.2271,-0.0886,-2.2303,0,-3.3513c0.0731,-0.619,0.1086,-1.3539,0.5942,-1.7826c0.2293,-0.2006,0.4961,-0.3298,0.7956,-0.3831c0.4679,-0.0846,2.4614,-0.1515,4.5252,-0.1515c2.0591,0,4.057,0.0669,4.5254,0.1515c0.3742,0.0669,0.7251,0.2673,0.9312,0.5258c0.4431,0.6638,0.4509,1.4891,0.4958,2.1347c0.0186,0.3076,0.0186,2.0543,0,2.362c-0.07,1.0203,-0.1263,1.3813,-0.2854,1.7556c-0.0984,0.2363,-0.1823,0.361,-0.3277,0.4992c-0.2279,0.2127,-0.5185,0.3541,-0.833,0.4055C13.0715,14.4888,11.4003,14.5194,9.5036,14.4905L9.5036,14.4905zM12.5162,10.4906C11.4213,9.9334,10.6,9.4167,9.5,8.8819v3.1998c1.1,-0.5838,2.1178,-1.1186,3.0208,-1.5955L12.5162,10.4906L12.5162,10.4906z" fill="none" stroke="#E51400" stroke-width="1" stroke-linecap="round" stroke-miterlimit="1" stroke-linejoin="round"/>
  </g>
</svg>
